<svg width="17" height="17" viewBox="0 0 17 17" fill="none" xmlns="http://www.w3.org/2000/svg">
<path d="M7.76827 1.8678C6.37917 1.8678 5.04697 2.41962 4.06472 3.40185C3.08248 4.38409 2.53065 5.71629 2.53064 7.10539C2.53064 8.49449 3.08246 9.82671 4.06471 10.809C5.04695 11.7912 6.37917 12.343 7.76827 12.343C9.15738 12.343 10.4896 11.7912 11.4718 10.809C12.4541 9.82671 13.0059 8.49449 13.0059 7.10539C13.0059 5.71629 12.4541 4.38409 11.4718 3.40185C10.4896 2.41962 9.15737 1.8678 7.76827 1.8678V1.8678ZM7.76827 2.77819C8.34853 2.77818 8.92311 2.89011 9.4592 3.10757C9.99529 3.32503 10.4824 3.64377 10.8927 4.04559C11.303 4.44741 11.6285 4.92443 11.8505 5.44944C12.0726 5.97444 12.1869 6.53713 12.1869 7.10539C12.1869 7.67365 12.0726 8.23634 11.8505 8.76134C11.6285 9.28634 11.303 9.76337 10.8927 10.1652C10.4824 10.567 9.99529 10.8857 9.4592 11.1032C8.92311 11.3207 8.34853 11.4326 7.76827 11.4326C6.5964 11.4326 5.47252 10.9767 4.64388 10.1652C3.81524 9.35367 3.34972 8.25303 3.34972 7.10539C3.34972 5.95775 3.81524 4.85711 4.64388 4.0456C5.47252 3.2341 6.5964 2.77819 7.76827 2.77819V2.77819Z" fill="black"/>
<path d="M14.0145 13.6571L11.6488 10.9145C11.241 10.4417 10.7433 10.2773 10.5372 10.5471C10.3311 10.817 10.4947 11.419 10.9025 11.8918L13.2682 14.6344C13.676 15.1072 14.1737 15.2716 14.3798 15.0018C14.5858 14.7319 14.4223 14.1298 14.0145 13.6571Z" fill="black"/>
</svg>
